<?xml version="1.0" encoding="utf-8"?><svg viewBox="0 0 150 150" xmlns="http://www.w3.org/2000/svg" xmlns:xlink="http://www.w3.org/1999/xlink"><style>:root>svg{display:none}:root>svg:target{display:block}</style><svg fill="none" viewBox="0 0 18 18" id="android_phone" xmlns="http://www.w3.org/2000/svg"><path fill-rule="evenodd" clip-rule="evenodd" d="M6 .75h6A2.25 2.25 0 0 1 14.25 3v12A2.25 2.25 0 0 1 12 17.25H6A2.25 2.25 0 0 1 3.75 15V3A2.25 2.25 0 0 1 6 .75zm6.75 3A.75.75 0 0 0 12 3H6a.75.75 0 0 0-.75.75v10.5c0 .414.336.75.75.75h6a.75.75 0 0 0 .75-.75V3.75z" fill="#fff"/></svg><svg fill="none" viewBox="0 0 34 34" id="email" xmlns="http://www.w3.org/2000/svg"><path fill-rule="evenodd" clip-rule="evenodd" d="M28.334 5.667H5.666A2.833 2.833 0 0 0 2.834 8.5v17a2.833 2.833 0 0 0 2.833 2.833h22.666a2.833 2.833 0 0 0 2.834-2.833v-17a2.833 2.833 0 0 0-2.834-2.833zm0 2.833v4.108L17.92 19.904a1.615 1.615 0 0 1-1.842 0L5.667 12.608V8.5h22.666zM5.666 15.583V25.5h22.666v-9.917l-8.995 6.29a4.08 4.08 0 0 1-4.675 0l-8.996-6.29z" fill="#181818"/></svg><svg fill="none" viewBox="0 0 34 34" id="facebook" xmlns="http://www.w3.org/2000/svg"><path d="M23.375 8.5h-4.25c-.783 0-1.417.634-1.417 1.417v4.25h5.667a.496.496 0 0 1 .482.651l-1.049 3.117a.708.708 0 0 1-.666.482h-4.434v10.625a.708.708 0 0 1-.708.708h-3.542a.708.708 0 0 1-.708-.708V18.417h-2.125a.708.708 0 0 1-.709-.709v-2.833c0-.391.318-.708.709-.708h2.125v-4.25a5.667 5.667 0 0 1 5.666-5.667h4.959c.391 0 .708.317.708.708v2.834a.708.708 0 0 1-.708.708z" fill="#181818"/></svg><svg fill="none" viewBox="0 0 150 150" id="info_hands" xmlns="http://www.w3.org/2000/svg"><g clip-path="url(#da)" fill="#181818"><path d="m61.629 132.975-.44 2.152.424-2.155a2.198 2.198 0 0 0-.85 4.311l.04.008a2.196 2.196 0 0 0 2.57-1.745 2.196 2.196 0 0 0-1.744-2.571zm16.799.706.219 2.185-.226-2.184a2.197 2.197 0 1 0 .45 4.371l.06-.006a2.192 2.192 0 0 0 1.921-2.427 2.206 2.206 0 0 0-2.424-1.939zm-8.411.277-.032-.002a2.185 2.185 0 0 0-2.277 2.098 2.209 2.209 0 0 0 2.11 2.293c.034.003.068.003.102.003a2.196 2.196 0 0 0 .097-4.392zm-16.504-3.216-.028-.011a2.186 2.186 0 0 0-2.797 1.33 2.21 2.21 0 0 0 2.08 2.946c.901 0 1.747-.557 2.069-1.455a2.195 2.195 0 0 0-1.324-2.81zm33.208 1.401.541 2.129-.548-2.127a2.197 2.197 0 1 0 1.155 4.24 2.19 2.19 0 0 0 1.537-2.685 2.203 2.203 0 0 0-2.685-1.557zm7.943-2.771.871 2.016-.877-2.014a2.199 2.199 0 0 0 1.754 4.03l.054-.024a2.191 2.191 0 0 0 1.096-2.894 2.202 2.202 0 0 0-2.898-1.114zM45.12 29.209a2.197 2.197 0 1 0-1.026-4.138l-.028.013a2.186 2.186 0 0 0-.891 2.967 2.198 2.198 0 0 0 1.944 1.158zM19.703 53.75a2.194 2.194 0 0 0 2.968-.925l.039-.077a2.196 2.196 0 0 0-1.003-2.94 2.196 2.196 0 0 0-2.93.98 2.198 2.198 0 0 0 .926 2.963zm-3.093 8.267a2.196 2.196 0 0 0 2.786-1.377l.028-.087a2.197 2.197 0 0 0-4.193-1.317 2.198 2.198 0 0 0 1.38 2.78zm7.428-15.953a2.195 2.195 0 0 0 3.07-.484l.028-.04a2.195 2.195 0 0 0-.509-3.06 2.2 2.2 0 0 0-3.066.505l1.77 1.303-1.777-1.294a2.197 2.197 0 0 0 .484 3.07zM37.66 33.955c.462 0 .926-.146 1.323-.448a2.197 2.197 0 1 0-2.595-3.545l-.055.04a2.202 2.202 0 0 0-.425 3.082c.433.57 1.089.87 1.752.87zM14.649 95.34a2.194 2.194 0 0 0 2.744 1.45 2.2 2.2 0 0 0 1.459-2.731 2.197 2.197 0 0 0-4.232 1.184l.029.097zm16.374-55.595c.57 0 1.142-.22 1.573-.66a2.198 2.198 0 0 0-3.108-3.107l-.037.037a2.195 2.195 0 0 0 1.572 3.73zM17.077 85.76a2.199 2.199 0 0 0-4.361.544l.012.087a2.193 2.193 0 0 0 2.492 1.851 2.2 2.2 0 0 0 1.857-2.482zm-2.76-6.293h.066c1.183 0 2.16-.941 2.195-2.132l.002-.094a2.197 2.197 0 0 0-4.394-.029 2.197 2.197 0 0 0 2.13 2.255zm.481-8.812a2.2 2.2 0 0 0 2.55-1.776c.007-.032.011-.064.016-.096a2.196 2.196 0 0 0-1.854-2.494 2.199 2.199 0 0 0-2.489 1.823 2.199 2.199 0 0 0 1.777 2.543zm103.649-23.898a2.189 2.189 0 0 0 3.052.56 2.2 2.2 0 0 0 .566-3.055l-1.827 1.223 1.82-1.233a2.198 2.198 0 0 0-3.638 2.466l.027.04zm11.221 22.111a2.196 2.196 0 0 0-1.937 2.43l.011.095a2.2 2.2 0 0 0 2.487 1.864 2.199 2.199 0 0 0 1.868-2.458 2.2 2.2 0 0 0-2.429-1.93zm-3.708-6.2.01.029a2.197 2.197 0 1 0 4.216-1.241l-.01-.029a2.198 2.198 0 0 0-4.216 1.24zm-3.104-8.216a2.21 2.21 0 0 0 1.982 1.234c.324 0 .654-.072.964-.225a2.19 2.19 0 0 0 1.004-2.935l-1.992.928 1.989-.932a2.196 2.196 0 1 0-3.979 1.865l.032.065zm-9.943-14.557c.43.44.999.66 1.569.66a2.195 2.195 0 0 0 1.588-3.715 2.197 2.197 0 0 0-3.224 2.986l.067.07zm17.469 38.148a2.204 2.204 0 0 0-2.26 2.123 2.198 2.198 0 0 0 4.389.222l.003-.09a2.193 2.193 0 0 0-2.132-2.255zm-31.52-48.937.052.028c.328.174.679.257 1.025.257a2.198 2.198 0 0 0 1.042-4.134l-1.063 1.923 1.056-1.927a2.197 2.197 0 0 0-2.112 3.853zm7.432 4.819.034.026a2.193 2.193 0 0 0 3.078-.423 2.197 2.197 0 0 0-.422-3.079l-.015-.01a2.196 2.196 0 1 0-2.675 3.486z"/><path d="m148.644 111.308-10.315-10.333a4.61 4.61 0 0 0-3.285-1.363 4.61 4.61 0 0 0-3.285 1.363l-.239.239-.677-.678a8.85 8.85 0 0 1-1.924-2.878 2.177 2.177 0 0 0-.157-.407 8.896 8.896 0 0 1-.511-2.985v-2.923a2.183 2.183 0 0 0 1.027.254 2.198 2.198 0 0 0 2.159-1.8 2.198 2.198 0 0 0-3.2-2.36 12.388 12.388 0 0 0-3.631-8.262L114.599 69.15a11.802 11.802 0 0 0-8.407-3.487c-2.458 0-4.8.745-6.775 2.124l-1.062-1.068V41.59c0-3.03-1.1-5.952-3.096-8.228a8.867 8.867 0 0 1-2.201-5.853v-1.841h.15a4.65 4.65 0 0 0 4.646-4.647V6.404a4.65 4.65 0 0 0-4.645-4.646H52.164a4.65 4.65 0 0 0-4.645 4.646V21.02a4.65 4.65 0 0 0 4.645 4.647h.34v.963a8.816 8.816 0 0 1-2.594 6.27l-4.43 4.439a12.396 12.396 0 0 0-3.645 8.815V60.33c0 1.926.462 3.744 1.276 5.356a11.8 11.8 0 0 0-7.71 3.465L25.394 79.175a12.398 12.398 0 0 0-3.644 8.815v6.276a8.81 8.81 0 0 1-2.593 6.27l-.67.671-.007.007-.238-.239a4.612 4.612 0 0 0-3.286-1.363 4.61 4.61 0 0 0-3.284 1.363L1.356 111.308a4.658 4.658 0 0 0 0 6.571l3.533 3.537a2.196 2.196 0 1 0 3.11-3.105l-3.532-3.538c-.1-.1-.1-.261 0-.361l10.315-10.333a.247.247 0 0 1 .35 0l1.793 1.797 24.488 24.529 2.743 2.749c.1.1.1.261 0 .361L33.84 143.848a.247.247 0 0 1-.35 0l-19.27-19.305a2.196 2.196 0 1 0-3.11 3.104l19.273 19.305a4.61 4.61 0 0 0 3.285 1.363 4.61 4.61 0 0 0 3.285-1.363l10.314-10.332a4.658 4.658 0 0 0 0-6.571l-.112-.112 1.301-1.303a8.828 8.828 0 0 1 5.685-2.577 12.437 12.437 0 0 0 8-3.628l9.476-9.496a7.525 7.525 0 0 0 5.438-5.732 7.445 7.445 0 0 0 3.211.725c4.133 0 7.495-3.366 7.495-7.504v-5.218a7.446 7.446 0 0 0 3.1.675c4.133 0 7.494-3.366 7.494-7.504V72.95l6.759 6.792c.429.432.993.647 1.557.647a2.197 2.197 0 0 0 1.558-3.747l-5.635-5.662a7.431 7.431 0 0 1 3.599-.922c2 0 3.882.78 5.296 2.199l10.007 10.023a8.033 8.033 0 0 1 2.361 5.71v6.276c0 3.542 1.377 6.871 3.876 9.375l.682.683-3.187 3.193-19.276 19.31-1.075-1.077-.033-.032-.189-.19a13.231 13.231 0 0 0-8.509-3.857 8.06 8.06 0 0 1-5.182-2.351l-7.22-7.182a2.197 2.197 0 1 0-3.1 3.115l7.217 7.176a12.438 12.438 0 0 0 8.001 3.628 8.833 8.833 0 0 1 5.684 2.576l.106.106c.057.065.118.126.182.183l1.013 1.014-.112.113a4.656 4.656 0 0 0 0 6.571l10.314 10.332a4.612 4.612 0 0 0 3.286 1.363c1.24 0 2.408-.484 3.285-1.363l29.025-29.074a4.657 4.657 0 0 0 0-6.57zm-18.921-21.85-.041-.006-.4-.082.441.088zM59.03 119.325a8.042 8.042 0 0 1-5.174 2.347 13.231 13.231 0 0 0-8.51 3.857l-1.296 1.299-1.168-1.17-.044-.044-21.252-21.289.682-.683a13.183 13.183 0 0 0 3.876-9.375V87.99a8.03 8.03 0 0 1 2.36-5.71l10.008-10.023a7.432 7.432 0 0 1 5.296-2.199c1.283 0 2.517.323 3.61.928l-5.644 5.654a2.198 2.198 0 0 0 3.11 3.105l6.743-6.755v27.432c0 4.138 3.362 7.504 7.494 7.504a7.45 7.45 0 0 0 3.253-.744 7.53 7.53 0 0 0 3.724 5.059l-7.068 7.083zm34.93-30.948a3.109 3.109 0 0 1-3.1 3.11c-1.71 0-3.1-1.396-3.1-3.11v-24.51a2.197 2.197 0 1 0-4.394 0v36.557a3.107 3.107 0 0 1-3.1 3.108 3.105 3.105 0 0 1-3.055-2.594V63.841a2.196 2.196 0 0 0-3.273-1.916 2.197 2.197 0 0 0-1.167 1.941v36.556c0 .279.016.553.046.824v4.428a3.108 3.108 0 0 1-3.1 3.109 3.108 3.108 0 0 1-3.1-3.109v-41.86a2.198 2.198 0 0 0-4.396 0v36.608a3.108 3.108 0 0 1-3.098 3.109c-1.71 0-3.1-1.395-3.1-3.109V59.549a2.198 2.198 0 1 0-4.395 0v7.56c-.184.06-.363.143-.529.253a7.519 7.519 0 0 1-4.87-7.032V46.154c0-2.157.84-4.185 2.361-5.71l4.43-4.439a13.18 13.18 0 0 0 3.878-9.375v-.963h4.417a2.197 2.197 0 1 0 0-4.395h-9.15a.252.252 0 0 1-.251-.252V6.404c0-.138.112-.252.25-.252h41.044c.14 0 .251.114.251.252V21.02a.25.25 0 0 1-.251.252H71.63a2.197 2.197 0 1 0 0 4.395h17.032v1.841c0 3.223 1.169 6.33 3.291 8.752a8.078 8.078 0 0 1 2.007 5.329v46.787zm51.573 26.397-29.024 29.075a.236.236 0 0 1-.175.073.238.238 0 0 1-.175-.073l-10.315-10.333a.257.257 0 0 1 0-.361l1.661-1.664.001-.001 16.849-16.878 10.514-10.532a.246.246 0 0 1 .349 0l10.315 10.333c.1.1.1.261 0 .361z"/><path d="M59.121 11.369a2.344 2.344 0 0 0 0 4.687 2.344 2.344 0 0 0 0-4.687zm76.641 100.161a2.344 2.344 0 0 0 0 4.687 2.344 2.344 0 0 0 0-4.687zm-99.145 22.416a2.345 2.345 0 0 0-2.34-2.344 2.345 2.345 0 0 0 0 4.688c1.29 0 2.34-1.052 2.34-2.344z"/></g><defs><clipPath id="da"><path fill="#fff" d="M0 0h150v150H0z"/></clipPath></defs></svg><svg fill="none" viewBox="0 0 150 150" id="info_heart" xmlns="http://www.w3.org/2000/svg"><path d="M148.886 44.117c-4.435-21.98-20.31-36.183-40.447-36.183-10.638 0-22.163 4.128-33.427 11.96C63.59 11.714 52.278 7.569 41.36 7.569c-20.25 0-36.058 14.358-40.27 36.573-6.18 32.21 13.425 74.964 71.158 97.872.044.017.088.033.133.047a7.156 7.156 0 0 0 5.218 0c.05-.017.1-.035.15-.055 26.491-10.732 47.038-26.463 59.42-45.491 10.871-16.708 15.033-35.31 11.72-52.38l-.004-.018zm-15.914 49.666c-11.807 18.146-31.526 33.204-57.025 43.55-.31.107-.63.179-.956.213a4.303 4.303 0 0 1-.965-.216C19.01 115.474.221 75.257 6.011 45.08c1.86-9.81 6.174-18.039 12.475-23.795 6.235-5.698 14.145-8.707 22.875-8.707 10.283 0 21.094 4.176 32.132 12.41.88.655 2.081.663 2.969.02 10.875-7.894 21.933-12.066 31.977-12.066 8.707 0 16.629 2.997 22.908 8.671 6.309 5.7 10.677 13.824 12.627 23.487 3.062 15.784-.846 33.072-11.002 48.683z" fill="#181818"/><path d="M104.031 50.331H90.96v-1.837a7.869 7.869 0 0 0-7.858-7.867H66.887a7.868 7.868 0 0 0-7.857 7.867v1.837H45.958c-4.266 0-7.588 3.54-7.588 7.946v37.091c0 4.407 3.322 7.866 7.588 7.866h58.073c4.265 0 7.589-3.46 7.589-7.866v-37.09c0-4.407-3.324-7.947-7.589-7.947zm-39.992-1.837a2.854 2.854 0 0 1 2.848-2.858h16.215a2.855 2.855 0 0 1 2.85 2.858v1.837H64.038v-1.837zm39.992 49.732H45.957c-1.502 0-2.578-1.213-2.578-2.858v-10.81a5.93 5.93 0 0 0 2.579.52h58.073a5.931 5.931 0 0 0 2.58-.52v10.81c0 1.645-1.076 2.858-2.58 2.858zm2.58-21.144c0 1.645-1.076 2.988-2.58 2.988H45.957c-1.502 0-2.578-1.343-2.578-2.988V58.277c0-1.645 1.075-2.937 2.579-2.937h58.073c1.503 0 2.58 1.292 2.58 2.937v18.805z" fill="#181818"/><path d="M80.003 64.731H69.986a2.504 2.504 0 1 0 0 5.009h10.017a2.504 2.504 0 0 0 0-5.009z" fill="#181818"/></svg><svg fill="none" viewBox="0 0 150 150" id="info_international" xmlns="http://www.w3.org/2000/svg"><g clip-path="url(#fa)" fill="#181818"><path d="M140.183 52.603c2.711-4.355 4.912-9.564 5.147-15.2a17.14 17.14 0 0 0-4.658-12.45c-3.111-3.28-7.292-5.112-11.77-5.16h-.185a16.495 16.495 0 0 0-10.664 3.874c-12.274-9.47-27.5-14.67-43.053-14.67a70.785 70.785 0 0 0-29.415 6.422c-.337-3.817-1.953-7.468-4.602-10.259C37.872 1.881 33.692.05 29.213.001L29.028 0a16.512 16.512 0 0 0-11.694 4.808 16.515 16.515 0 0 0-4.935 11.823c0 7.4 3.473 14.12 7.228 19.225A70.267 70.267 0 0 0 9.16 54.235a2.195 2.195 0 0 0 4.097 1.573 65.858 65.858 0 0 1 9.095-16.304 15.444 15.444 0 0 0-.087 1.554V51.72c0 2.1 1.157 4.01 3.018 4.983.822.43 1.717.644 2.608.644a5.616 5.616 0 0 0 3.206-1.007l7.864-5.46a13.021 13.021 0 0 1 7.46-2.336h10.122c3.925 0 7.616-1.529 10.392-4.305l9.988-9.988c3.356-3.356 3.542-8.787.422-12.364l-4.864-5.577a3.463 3.463 0 0 1-.797-2.834 66.587 66.587 0 0 1 3.315-.09c14.46 0 28.617 4.794 40.074 13.53a16.494 16.494 0 0 0-2.986 9.508c0 3.04.59 5.965 1.542 8.712a25.713 25.713 0 0 0 2.026 14.013l4.269 9.504a14.216 14.216 0 0 0 12.949 8.38c2.831 0 5.57-.836 7.92-2.415l.136-.092c.122 1.648.183 3.306.183 4.973 0 36.455-29.658 66.113-66.113 66.113S8.887 115.954 8.887 79.499a66.45 66.45 0 0 1 1.742-15.146 2.194 2.194 0 1 0-4.272-1.001A70.84 70.84 0 0 0 4.5 79.499c0 18.832 7.333 36.536 20.65 49.852C38.463 142.667 56.168 150 75 150s36.536-7.333 49.852-20.649c13.316-13.316 20.649-31.021 20.649-49.852 0-9.32-1.792-18.363-5.318-26.896zM20.42 7.927a12.157 12.157 0 0 1 8.746-3.538c3.28.035 6.347 1.382 8.633 3.792a12.729 12.729 0 0 1 3.458 9.246c-.408 9.778-8.267 18.579-11.627 21.908a.853.853 0 0 1-1.197.002c-3.502-3.47-11.646-12.627-11.646-22.706 0-3.295 1.29-6.386 3.633-8.704zm48.755 11.267 4.864 5.577a4.687 4.687 0 0 1-.218 6.377l-9.988 9.988a10.24 10.24 0 0 1-7.29 3.02h-10.12a17.39 17.39 0 0 0-9.963 3.119l-7.865 5.46a1.207 1.207 0 0 1-1.277.08c-.2-.105-.663-.42-.663-1.095v-8.322a5.261 5.261 0 0 0 6.065-.945c4.232-4.194 11.138-12.349 12.644-22.06a66.171 66.171 0 0 1 21.894-6.549 7.853 7.853 0 0 0 1.917 5.35zm59.544 4.986.135.001c3.281.035 6.348 1.382 8.634 3.792a12.73 12.73 0 0 1 3.458 9.246c-.408 9.778-8.267 18.579-11.627 21.908a.853.853 0 0 1-1.197.003c-3.502-3.47-11.646-12.629-11.646-22.706 0-3.296 1.291-6.387 3.634-8.705a12.155 12.155 0 0 1 8.609-3.539zm9.626 46.795a9.771 9.771 0 0 1-5.471 1.668 9.82 9.82 0 0 1-8.946-5.788l-4.269-9.505a21.395 21.395 0 0 1-.953-2.551c2.164 3.075 4.483 5.621 6.327 7.448a5.22 5.22 0 0 0 3.685 1.51 5.227 5.227 0 0 0 3.69-1.513 57.421 57.421 0 0 0 4.747-5.328 65.327 65.327 0 0 1 3.226 12.69l-2.036 1.37z"/><path d="M128.72 46.224c5.105 0 9.258-4.153 9.258-9.258 0-5.105-4.153-9.259-9.258-9.259-5.105 0-9.259 4.154-9.259 9.259s4.154 9.258 9.259 9.258zm0-14.128a4.876 4.876 0 0 1 4.87 4.87 4.876 4.876 0 0 1-4.87 4.87 4.875 4.875 0 0 1-4.87-4.87 4.875 4.875 0 0 1 4.87-4.87zM95.267 47.978c-3.112-3.279-7.291-5.111-11.77-5.16h-.185a16.515 16.515 0 0 0-11.694 4.807 16.507 16.507 0 0 0-4.6 8.476 15.018 15.018 0 0 0-12.898 6.318l-7.373 10.415a13.3 13.3 0 0 0-1.015 13.715 16.58 16.58 0 0 0-1.435 6.77c0 9.665 5.924 18.171 10.665 23.431l-.478 12.97a9.162 9.162 0 0 0 9.165 9.503 9.163 9.163 0 0 0 5.232-1.635l20.197-14.031a32.782 32.782 0 0 0 8.073-8.002l6.098-8.613a2.194 2.194 0 0 0-3.582-2.536l-6.098 8.613a28.386 28.386 0 0 1-6.995 6.934l-20.197 14.032a4.795 4.795 0 0 1-5.502-.032 4.771 4.771 0 0 1-2.006-4.072l.358-9.515a5.223 5.223 0 0 0 5.39-1.226c4.63-4.589 12.467-13.918 12.922-24.842a17.142 17.142 0 0 0-4.659-12.45c-3.111-3.28-7.291-5.111-11.77-5.16a16.514 16.514 0 0 0-11.879 4.808c-.148.146-.29.297-.431.449a8.92 8.92 0 0 1 1.528-6.576l7.373-10.414a10.627 10.627 0 0 1 9.004-4.47c.472 10.863 8.236 20.144 12.922 24.787a5.22 5.22 0 0 0 3.686 1.51 5.226 5.226 0 0 0 3.69-1.512c1.91-1.893 4.365-4.595 6.624-7.881l11.385 8.06a6.548 6.548 0 0 1 2.689 4.268 6.55 6.55 0 0 1-1.117 4.918l-1.601 2.261a2.195 2.195 0 0 0 3.581 2.536l1.601-2.26a10.903 10.903 0 0 0 1.861-8.195 10.906 10.906 0 0 0-4.478-7.11L95.94 73.649c2.155-3.92 3.784-8.416 3.985-13.221a17.138 17.138 0 0 0-4.658-12.45zM60.928 81.076h.136c3.28.036 6.347 1.382 8.634 3.792a12.73 12.73 0 0 1 3.458 9.247c-.409 9.778-8.268 18.578-11.628 21.908a.853.853 0 0 1-1.197.002c-3.502-3.47-11.646-12.627-11.646-22.706 0-3.295 1.29-6.386 3.633-8.704a12.157 12.157 0 0 1 8.61-3.54zm22.986 1.077a.853.853 0 0 1-1.198.002c-3.5-3.47-11.645-12.628-11.645-22.706 0-3.295 1.29-6.386 3.633-8.704a12.157 12.157 0 0 1 8.746-3.538c3.28.035 6.347 1.382 8.634 3.791a12.729 12.729 0 0 1 3.457 9.247c-.408 9.777-8.267 18.578-11.627 21.908z"/><path d="M90.379 57.797a2.194 2.194 0 0 0-2.194 2.195 4.876 4.876 0 0 1-4.87 4.87 4.876 4.876 0 0 1-4.87-4.87 4.876 4.876 0 0 1 5.836-4.775 2.195 2.195 0 0 0 .865-4.303 9.323 9.323 0 0 0-1.831-.18c-5.106 0-9.259 4.153-9.259 9.258 0 5.105 4.154 9.258 9.259 9.258s9.258-4.153 9.258-9.258a2.194 2.194 0 0 0-2.194-2.195zm-29.45 45.323c5.105 0 9.258-4.154 9.258-9.259s-4.153-9.258-9.258-9.258c-5.105 0-9.259 4.153-9.259 9.258 0 5.105 4.154 9.259 9.259 9.259zm0-14.13a4.875 4.875 0 0 1 4.87 4.87 4.875 4.875 0 0 1-4.87 4.87 4.876 4.876 0 0 1-4.87-4.87 4.876 4.876 0 0 1 4.87-4.87zM38.29 17.174c0-5.105-4.154-9.258-9.26-9.258-5.104 0-9.258 4.153-9.258 9.258 0 5.105 4.153 9.258 9.258 9.258 5.105 0 9.26-4.153 9.26-9.258zm-14.13 0a4.876 4.876 0 0 1 4.87-4.87 4.876 4.876 0 0 1 4.87 4.87 4.875 4.875 0 0 1-4.87 4.87 4.875 4.875 0 0 1-4.87-4.87z"/></g><defs><clipPath id="fa"><path fill="#fff" d="M0 0h150v150H0z"/></clipPath></defs></svg><svg fill="none" viewBox="0 0 34 34" id="instagram" xmlns="http://www.w3.org/2000/svg"><path fill-rule="evenodd" clip-rule="evenodd" d="M22.667 4.25H11.333a7.083 7.083 0 0 0-7.083 7.083v11.334a7.083 7.083 0 0 0 7.083 7.083h11.334a7.083 7.083 0 0 0 7.083-7.083V11.333a7.083 7.083 0 0 0-7.083-7.083zm4.604 18.417a4.618 4.618 0 0 1-4.604 4.604H11.333a4.618 4.618 0 0 1-4.604-4.604V11.333a4.618 4.618 0 0 1 4.604-4.604h11.334a4.618 4.618 0 0 1 4.604 4.604v11.334zm-3.542-10.98a1.417 1.417 0 1 0 0-2.833 1.417 1.417 0 0 0 0 2.834zM17 10.626A6.375 6.375 0 1 0 23.375 17 6.361 6.361 0 0 0 17 10.625zM13.104 17a3.896 3.896 0 1 0 7.792 0 3.896 3.896 0 0 0-7.792 0z" fill="#181818"/></svg><svg fill="none" viewBox="0 0 18 18" id="location" xmlns="http://www.w3.org/2000/svg"><path fill-rule="evenodd" clip-rule="evenodd" d="M15 7.5a6 6 0 0 0-12 0c0 2.808 1.373 3.912 2.647 4.937.842.678 1.642 1.32 1.973 2.398l.382 1.155a.75.75 0 0 0 .75.51h.42a.75.75 0 0 0 .75-.51l.383-1.155c.358-1.07 1.166-1.71 2.012-2.382C13.613 11.423 15 10.323 15 7.5zM9 3a4.5 4.5 0 0 0-4.5 4.5c0 2.1.885 2.805 2.115 3.75A6.878 6.878 0 0 1 9 14.047a6.938 6.938 0 0 1 2.385-2.797c1.23-.945 2.115-1.65 2.115-3.75A4.5 4.5 0 0 0 9 3zm1.5 4.5a1.5 1.5 0 1 1-3 0 1.5 1.5 0 0 1 3 0z" fill="#fff"/></svg><svg fill="none" viewBox="0 0 110 82" id="logo" xmlns="http://www.w3.org/2000/svg"><path fill="#FDEC41" stroke="#000" stroke-width="2.127" d="M42.24 29.721h25.253v8.506H42.24z"/><mask id="ia" fill="#fff"><path fill-rule="evenodd" clip-rule="evenodd" d="M76 5H34v42h42V5zm-9.57 9.57H43.57v22.86h22.86V14.57z"/></mask><path fill-rule="evenodd" clip-rule="evenodd" d="M76 5H34v42h42V5zm-9.57 9.57H43.57v22.86h22.86V14.57z" fill="#A7EAF3"/><path d="M34 5V3.14h-1.86V5H34zm42 0h1.86V3.14H76V5zM34 47h-1.86v1.86H34V47zm42 0v1.86h1.86V47H76zM43.57 14.57v-1.861h-1.861v1.86h1.86zm22.86 0h1.861v-1.861h-1.86v1.86zM43.57 37.43h-1.861v1.861h1.86v-1.86zm22.86 0v1.861h1.861v-1.86h-1.86zM34 6.86h42V3.14H34v3.72zM35.86 47V5h-3.72v42h3.72zM76 45.14H34v3.72h42v-3.72zM74.14 5v42h3.72V5h-3.72zM43.57 16.43h22.86v-3.72H43.57v3.721zm1.86 21V14.57h-3.72v22.86h3.721zm21-1.86H43.57v3.721h22.86V35.57zm-1.86-21v22.86h3.721V14.57H64.57z" fill="#000" mask="url(#ia)"/><path d="M54.203 12.709V6.86h19.936v38.278l-5.848-5.848V12.71H54.203z" fill="#003B9F"/><path d="m35.86 6.86 5.849 5.849h12.494V6.86H35.86z" fill="#FF8761"/><circle cx="55" cy="21.481" r="5.051" fill="#FFB800"/><path d="M10.68 53.6c.76 0 1.42.128 1.98.384.56.248.992.608 1.296 1.08.304.464.456 1.012.456 1.644 0 .632-.152 1.18-.456 1.644-.304.464-.736.824-1.296 1.08-.56.248-1.22.372-1.98.372H9.216V62H6.84v-8.4h3.84zm-.144 4.332c.488 0 .856-.104 1.104-.312.248-.216.372-.52.372-.912s-.124-.696-.372-.912c-.248-.216-.616-.324-1.104-.324h-1.32v2.46h1.32zm8.707 1.836h-1.296V62H15.57v-8.4h3.84c.76 0 1.42.128 1.98.384.56.248.992.608 1.296 1.08.305.464.456 1.012.456 1.644 0 .608-.143 1.14-.431 1.596-.28.448-.684.8-1.212 1.056L23.31 62h-2.544l-1.524-2.232zm1.5-3.06c0-.392-.124-.696-.372-.912-.248-.216-.616-.324-1.104-.324h-1.32v2.46h1.32c.488 0 .855-.104 1.104-.312.248-.216.372-.52.372-.912zm10.934 4.656c-.432.248-.956.444-1.572.588a8.408 8.408 0 0 1-1.92.216c-.896 0-1.66-.108-2.292-.324-.624-.216-1.096-.516-1.416-.9a2.051 2.051 0 0 1-.468-1.332c0-.44.12-.828.36-1.164a2.33 2.33 0 0 1 .996-.78c-.328-.168-.58-.4-.756-.696a2.025 2.025 0 0 1-.252-.996c0-.464.144-.888.432-1.272.296-.384.744-.692 1.344-.924.6-.232 1.34-.348 2.22-.348.552 0 1.096.052 1.632.156a6.899 6.899 0 0 1 1.416.42l-.648 1.776a5.655 5.655 0 0 0-2.304-.492c-.568 0-.992.076-1.272.228-.28.144-.42.348-.42.612 0 .48.348.72 1.044.72h2.376v1.812h-2.532c-.408 0-.716.068-.924.204a.632.632 0 0 0-.312.576c0 .272.152.484.456.636.304.152.776.228 1.416.228.456 0 .924-.06 1.404-.18.488-.128.912-.3 1.272-.516l.72 1.752zm7.306-5.124a6.836 6.836 0 0 0-2.147-.78V62h-2.377v-6.54a6.563 6.563 0 0 0-2.148.78l-.791-1.728a7.29 7.29 0 0 1 1.932-.804 8.741 8.741 0 0 1 2.196-.276c.752 0 1.48.092 2.183.276.712.184 1.36.452 1.944.804l-.791 1.728zm7.922 0a6.836 6.836 0 0 0-2.148-.78V62h-2.376v-6.54a6.563 6.563 0 0 0-2.148.78l-.792-1.728a7.29 7.29 0 0 1 1.932-.804 8.741 8.741 0 0 1 2.196-.276c.752 0 1.48.092 2.184.276.712.184 1.36.452 1.944.804l-.792 1.728zm9.266-2.64v5.7c0 .848-.168 1.576-.504 2.184a3.236 3.236 0 0 1-1.44 1.356c-.616.312-1.348.468-2.196.468-.744 0-1.42-.096-2.028-.288a4.639 4.639 0 0 1-1.548-.792l.888-1.716c.384.28.796.492 1.236.636.44.144.892.216 1.356.216.64 0 1.108-.156 1.404-.468.304-.312.456-.8.456-1.464v-.384c-.536.648-1.292.972-2.268.972-1.056 0-1.868-.3-2.436-.9-.568-.608-.852-1.476-.852-2.604V53.6h2.376v2.76c0 .568.128.996.384 1.284.264.28.644.42 1.14.42.504 0 .904-.148 1.2-.444.304-.296.456-.756.456-1.38V53.6h2.376zm8.775 6.168H63.65V62h-2.376v-8.4h3.84c.76 0 1.42.128 1.98.384.56.248.992.608 1.296 1.08.304.464.456 1.012.456 1.644 0 .608-.144 1.14-.432 1.596-.28.448-.684.8-1.212 1.056L69.014 62H66.47l-1.524-2.232zm1.5-3.06c0-.392-.124-.696-.372-.912-.248-.216-.616-.324-1.104-.324h-1.32v2.46h1.32c.488 0 .856-.104 1.104-.312.248-.216.372-.52.372-.912zm7.946 5.46c-.888 0-1.688-.188-2.4-.564a4.292 4.292 0 0 1-1.668-1.56c-.4-.664-.6-1.412-.6-2.244 0-.832.2-1.58.6-2.244a4.292 4.292 0 0 1 1.668-1.56c.712-.376 1.512-.564 2.4-.564.888 0 1.684.188 2.388.564a4.185 4.185 0 0 1 1.668 1.56c.408.664.612 1.412.612 2.244 0 .832-.204 1.58-.612 2.244a4.185 4.185 0 0 1-1.668 1.56c-.704.376-1.5.564-2.388.564zm0-1.968c.424 0 .808-.1 1.152-.3.344-.2.616-.48.816-.84.2-.368.3-.788.3-1.26s-.1-.888-.3-1.248a2.148 2.148 0 0 0-.816-.852 2.25 2.25 0 0 0-1.152-.3c-.424 0-.808.1-1.152.3-.344.2-.616.484-.816.852-.2.36-.3.776-.3 1.248s.1.892.3 1.26c.2.36.472.64.816.84.344.2.728.3 1.152.3zm10.149 1.968c-.888 0-1.688-.188-2.4-.564a4.292 4.292 0 0 1-1.668-1.56c-.4-.664-.6-1.412-.6-2.244 0-.832.2-1.58.6-2.244a4.292 4.292 0 0 1 1.668-1.56c.712-.376 1.512-.564 2.4-.564.888 0 1.684.188 2.388.564a4.185 4.185 0 0 1 1.668 1.56c.408.664.612 1.412.612 2.244 0 .832-.204 1.58-.612 2.244a4.185 4.185 0 0 1-1.668 1.56c-.704.376-1.5.564-2.388.564zm0-1.968c.424 0 .808-.1 1.152-.3.344-.2.616-.48.816-.84.2-.368.3-.788.3-1.26s-.1-.888-.3-1.248a2.148 2.148 0 0 0-.816-.852 2.25 2.25 0 0 0-1.152-.3c-.424 0-.808.1-1.152.3-.344.2-.616.484-.816.852-.2.36-.3.776-.3 1.248s.1.892.3 1.26c.2.36.472.64.816.84.344.2.728.3 1.152.3zm15.74-6.768c.992 0 1.764.296 2.316.888.56.584.84 1.432.84 2.544V62h-2.376v-5.064c0-.504-.132-.884-.396-1.14-.264-.264-.616-.396-1.056-.396-.472 0-.848.14-1.128.42-.272.272-.408.684-.408 1.236V62h-2.376v-5.064c0-.504-.124-.884-.372-1.14-.24-.264-.572-.396-.996-.396-.456 0-.82.14-1.092.42-.272.272-.408.684-.408 1.236V62h-2.376v-8.4h2.304v.936c.256-.36.584-.632.984-.816.408-.192.88-.288 1.416-.288.552 0 1.032.1 1.44.3.416.2.752.492 1.008.876a2.732 2.732 0 0 1 1.128-.876c.464-.2.98-.3 1.548-.3zM26.7 67.58V75h-.49v-1.23c-.207.407-.497.72-.87.94-.373.22-.797.33-1.27.33a2.59 2.59 0 0 1-1.32-.34 2.47 2.47 0 0 1-.93-.94c-.22-.4-.33-.857-.33-1.37 0-.513.11-.97.33-1.37a2.38 2.38 0 0 1 .93-.94 2.59 2.59 0 0 1 1.32-.34c.467 0 .883.11 1.25.33.373.22.667.527.88.92v-3.41h.5zm-2.6 7.01c.4 0 .757-.093 1.07-.28.32-.187.57-.447.75-.78.187-.333.28-.713.28-1.14 0-.427-.093-.807-.28-1.14a1.965 1.965 0 0 0-.75-.78 2.05 2.05 0 0 0-1.07-.28c-.4 0-.76.093-1.08.28a2.06 2.06 0 0 0-.75.78 2.36 2.36 0 0 0-.27 1.14c0 .427.09.807.27 1.14.187.333.437.593.75.78.32.187.68.28 1.08.28zm6.848 0c.34 0 .653-.06.94-.18a1.88 1.88 0 0 0 .73-.55l.29.33c-.227.28-.51.493-.85.64-.34.14-.713.21-1.12.21-.52 0-.987-.113-1.4-.34a2.502 2.502 0 0 1-.96-.94 2.73 2.73 0 0 1-.34-1.37c0-.513.107-.97.32-1.37.22-.4.523-.713.91-.94.387-.227.823-.34 1.31-.34.453 0 .86.107 1.22.32.367.207.657.497.87.87.22.367.34.78.36 1.24l-4.41.86c.127.48.38.86.76 1.14.38.28.837.42 1.37.42zm-.17-4.41c-.393 0-.747.093-1.06.28-.313.18-.557.437-.73.77-.173.327-.26.7-.26 1.12 0 .073.007.177.02.31l3.98-.78a2.083 2.083 0 0 0-.33-.86c-.173-.26-.4-.463-.68-.61a1.925 1.925 0 0 0-.94-.23zm5.317 4.86c-.42 0-.82-.063-1.2-.19s-.677-.287-.89-.48l.23-.4c.213.18.486.33.82.45.34.12.693.18 1.06.18.526 0 .913-.087 1.16-.26a.825.825 0 0 0 .38-.72c0-.22-.07-.393-.21-.52-.133-.127-.3-.22-.5-.28-.2-.06-.477-.123-.83-.19a6.925 6.925 0 0 1-1-.24 1.568 1.568 0 0 1-.65-.42c-.18-.193-.27-.46-.27-.8 0-.413.17-.753.51-1.02.346-.273.837-.41 1.47-.41.333 0 .663.047.99.14.327.093.593.217.8.37l-.23.4a2.389 2.389 0 0 0-.73-.35 2.975 2.975 0 0 0-.84-.12c-.487 0-.853.09-1.1.27a.839.839 0 0 0-.37.71c0 .233.07.417.21.55.14.127.31.223.51.29.206.06.493.127.86.2.407.073.733.153.98.24.253.08.466.213.64.4.173.187.26.443.26.77 0 .433-.18.78-.54 1.04-.36.26-.867.39-1.52.39zm3.455-5.26h.5V75h-.5v-5.22zm.25-1.27a.414.414 0 0 1-.29-.11.395.395 0 0 1-.12-.29c0-.113.04-.21.12-.29.08-.08.177-.12.29-.12.114 0 .21.04.29.12.08.073.12.167.12.28 0 .113-.04.21-.12.29a.395.395 0 0 1-.29.12zm7.058 1.27v4.66c0 .867-.21 1.507-.63 1.92-.42.413-1.054.62-1.9.62-.48 0-.934-.073-1.36-.22-.427-.147-.77-.35-1.03-.61l.27-.38c.26.24.573.427.94.56a3.4 3.4 0 0 0 1.17.2c.693 0 1.206-.167 1.54-.5.333-.327.5-.837.5-1.53v-.88c-.214.38-.51.673-.89.88-.38.207-.807.31-1.28.31-.487 0-.93-.107-1.33-.32a2.437 2.437 0 0 1-.93-.91 2.541 2.541 0 0 1-.34-1.31c0-.487.113-.923.34-1.31.226-.387.536-.687.93-.9.4-.213.843-.32 1.33-.32.48 0 .913.107 1.3.32.386.213.683.513.89.9v-1.18h.48zm-2.63 4.58a2.31 2.31 0 0 0 1.1-.26c.326-.18.58-.427.76-.74.186-.32.28-.683.28-1.09a2.07 2.07 0 0 0-.28-1.08 1.866 1.866 0 0 0-.76-.73 2.241 2.241 0 0 0-1.1-.27c-.407 0-.774.09-1.1.27a1.95 1.95 0 0 0-.76.73c-.18.313-.27.673-.27 1.08 0 .407.09.77.27 1.09.186.313.44.56.76.74.326.173.693.26 1.1.26zm7.296-4.62c.653 0 1.17.19 1.55.57.38.38.57.927.57 1.64V75h-.5v-3.01c0-.587-.15-1.033-.45-1.34-.293-.307-.707-.46-1.24-.46-.613 0-1.097.183-1.45.55-.353.367-.53.86-.53 1.48V75h-.5v-5.22h.48v1.13c.18-.367.447-.653.8-.86.36-.207.783-.31 1.27-.31zm8.067 5.3c-.42 0-.82-.063-1.2-.19s-.677-.287-.89-.48l.23-.4c.213.18.487.33.82.45.34.12.693.18 1.06.18.527 0 .913-.087 1.16-.26a.825.825 0 0 0 .38-.72c0-.22-.07-.393-.21-.52-.133-.127-.3-.22-.5-.28-.2-.06-.477-.123-.83-.19a6.925 6.925 0 0 1-1-.24 1.568 1.568 0 0 1-.65-.42c-.18-.193-.27-.46-.27-.8 0-.413.17-.753.51-1.02.347-.273.837-.41 1.47-.41.333 0 .663.047.99.14.327.093.593.217.8.37l-.23.4a2.389 2.389 0 0 0-.73-.35 2.975 2.975 0 0 0-.84-.12c-.487 0-.853.09-1.1.27a.839.839 0 0 0-.37.71c0 .233.07.417.21.55.14.127.31.223.51.29.207.06.493.127.86.2.407.073.733.153.98.24.253.08.467.213.64.4.173.187.26.443.26.77 0 .433-.18.78-.54 1.04-.36.26-.867.39-1.52.39zm5.885-.37c-.126.12-.286.213-.48.28-.186.06-.383.09-.59.09-.453 0-.803-.123-1.05-.37-.246-.253-.37-.603-.37-1.05v-4.98h.5v1.14h1.66v.43h-1.66v3.36c0 .34.08.6.24.78.167.173.41.26.73.26.327 0 .597-.097.81-.29l.21.35zm5.959-4.89V75h-.48v-1.12a1.97 1.97 0 0 1-.77.86c-.34.2-.74.3-1.2.3-.68 0-1.214-.19-1.6-.57-.387-.38-.58-.927-.58-1.64v-3.05h.5v3.01c0 .587.15 1.033.45 1.34.3.307.723.46 1.27.46.586 0 1.05-.183 1.39-.55.346-.367.52-.86.52-1.48v-2.78h.5zm6.76-2.2V75h-.49v-1.23a2.24 2.24 0 0 1-.87.94c-.374.22-.797.33-1.27.33a2.59 2.59 0 0 1-1.32-.34 2.47 2.47 0 0 1-.93-.94c-.22-.4-.33-.857-.33-1.37 0-.513.11-.97.33-1.37a2.38 2.38 0 0 1 .93-.94c.392-.227.832-.34 1.32-.34.466 0 .883.11 1.25.33.373.22.666.527.88.92v-3.41h.5zm-2.6 7.01c.4 0 .756-.093 1.07-.28.32-.187.57-.447.75-.78.186-.333.28-.713.28-1.14 0-.427-.094-.807-.28-1.14a1.965 1.965 0 0 0-.75-.78 2.05 2.05 0 0 0-1.07-.28c-.4 0-.76.093-1.08.28a2.06 2.06 0 0 0-.75.78 2.36 2.36 0 0 0-.27 1.14c0 .427.09.807.27 1.14.186.333.436.593.75.78.32.187.68.28 1.08.28zm4.707-4.81h.5V75h-.5v-5.22zm.25-1.27a.414.414 0 0 1-.29-.11.395.395 0 0 1-.12-.29c0-.113.04-.21.12-.29.08-.08.177-.12.29-.12.113 0 .21.04.29.12.08.073.12.167.12.28 0 .113-.04.21-.12.29a.395.395 0 0 1-.29.12zm4.398 6.53a2.67 2.67 0 0 1-1.34-.34 2.47 2.47 0 0 1-.93-.94 2.765 2.765 0 0 1-.34-1.37c0-.507.113-.96.34-1.36a2.45 2.45 0 0 1 .93-.95c.4-.227.846-.34 1.34-.34.493 0 .936.113 1.33.34.4.227.713.543.94.95.226.4.34.853.34 1.36 0 .507-.114.963-.34 1.37-.227.4-.54.713-.94.94-.394.227-.837.34-1.33.34zm0-.45c.4 0 .756-.093 1.07-.28.32-.187.57-.447.75-.78.186-.333.28-.713.28-1.14 0-.427-.094-.807-.28-1.14a1.965 1.965 0 0 0-.75-.78 2.05 2.05 0 0 0-1.07-.28c-.4 0-.76.093-1.08.28a2.06 2.06 0 0 0-.75.78 2.36 2.36 0 0 0-.27 1.14c0 .427.09.807.27 1.14.186.333.436.593.75.78.32.187.68.28 1.08.28z" fill="#fff"/></svg><svg viewBox="0 0 34 34" id="twitter" xmlns="http://www.w3.org/2000/svg"><path d="M31.124 9.157a11.317 11.317 0 0 1-2.617 2.52v.777a17.27 17.27 0 0 1-5.13 12.313 17.253 17.253 0 0 1-12.368 4.981A17.307 17.307 0 0 1 3.3 27.965a.354.354 0 0 1-.212-.325v-.156c0-.203.164-.368.368-.368a12.53 12.53 0 0 0 7.242-2.604 6.181 6.181 0 0 1-5.503-3.623.368.368 0 0 1 .368-.51 5.657 5.657 0 0 0 2.15-.198 6.17 6.17 0 0 1-4.88-5.391.368.368 0 0 1 .51-.368c.704.31 1.464.474 2.234.48a6.059 6.059 0 0 1-2.418-6.99.764.764 0 0 1 1.287-.255 17.48 17.48 0 0 0 11.896 5.49 5.659 5.659 0 0 1-.17-1.414 6.165 6.165 0 0 1 10.623-4.16 12.288 12.288 0 0 0 3.381-1.176.24.24 0 0 1 .255 0 .24.24 0 0 1 0 .255 6.184 6.184 0 0 1-2.49 2.83c.967-.112 1.917-.34 2.83-.679a.226.226 0 0 1 .254 0 .24.24 0 0 1 .099.354z"/></svg></svg>